<?xml version="1.0" encoding="UTF-8"?>
<svg id="Layer_2" data-name="Layer 2" xmlns="http://www.w3.org/2000/svg" viewBox="0 0 28.06 32.17">
  <defs>
    <style>
      .cls-1 {
        fill: #231f20;
      }
    </style>
  </defs>
  <g id="Layer_1-2" data-name="Layer 1">
    <path class="cls-1" d="m20.49,18.56c-1.64,6.45-11.85,6.45-13.48,0,3.76,3.8,9.73,3.81,13.48,0h0Z"/>
    <path class="cls-1" d="m4.89,10.22c-.5-2.04,1.51-3.78,3.44-3.79,1.92-.11,4.04,1.48,3.69,3.55,0,.09-.08.21-.17.11-1.65-2.31-5.31-2.18-6.8.23-.08.1-.17,0-.17-.1h0Z"/>
    <path class="cls-1" d="m15.47,10.22c-.5-2.04,1.51-3.78,3.44-3.8,1.92-.11,4.05,1.48,3.69,3.55,0,.09-.08.21-.17.11-1.65-2.31-5.31-2.18-6.8.24-.08.1-.17,0-.17-.1h0Z"/>
    <path class="cls-1" d="m1.98,1.73s.06.04.06.05c0,.03,0,.09,0,.13,0,0,0,.28,0,.28.02.33.03,1.32.04,1.67.19,4.82-.13,10.37.96,15.05.81,2.47,2.77,4.74,4.48,6.79,1.85,2.01,3.81,4.36,6.33,5.5.59-.11,1.14-.53,1.67-.87,2.93-2.13,5.44-4.9,7.52-7.85,1.89-2.43,2.19-4.67,2.12-7.64,0-2.89-.23-5.81-.49-8.7-.11-1.45-.24-2.92-.39-4.35l1.91,1.41c-7.87,1.25-15.95,1-23.61-1.2,0,0-.36-.11-.36-.11l-.18-.06s-.18,0-.06-.09h0Zm-.18-.24c.24-.05.23,0,.31-.01.1,0,.46.03.57.03,3.65.18,7.58.18,11.21-.03,3.89-.26,7.9-.69,11.69-1.44.86-.18,1.7.37,1.88,1.23.49,6.14,1.18,12.26-.31,18.34-1.16,2.98-3.71,5.01-5.92,7.16-1.97,1.74-3.92,3.5-6.13,4.94-.39.22-.78.45-1.28.46-.57-.07-.89-.25-1.26-.41-2.36-1.25-4.49-2.83-6.54-4.54-2.32-2.06-4.7-4.49-5.53-7.6-.39-1.64-.49-3.16-.5-4.69C.01,10.6.58,6.32,1.6,2.14c.07-.18.09-.49.2-.65h0Z"/>
  </g>
</svg>