<?xml version="1.0" encoding="UTF-8"?>
<svg id="Layer_2" data-name="Layer 2" xmlns="http://www.w3.org/2000/svg" viewBox="0 0 28.06 32.17">
  <defs>
    <style>
      .cls-1 {
        fill: #231f20;
      }
    </style>
  </defs>
  <g id="Layer_1-2" data-name="Layer 1">
    <path class="cls-1" d="m1.98,1.73s.06.04.06.05c0,.03,0,.09,0,.13v.28c.03.33.04,1.32.05,1.67.19,4.82-.13,10.37.96,15.05.81,2.47,2.77,4.74,4.48,6.79,1.85,2.01,3.81,4.36,6.33,5.5.59-.11,1.14-.53,1.67-.87,2.93-2.13,5.44-4.9,7.52-7.85,1.89-2.43,2.19-4.67,2.12-7.64,0-2.89-.23-5.81-.49-8.7-.11-1.45-.24-2.92-.39-4.35l1.91,1.41c-7.87,1.25-15.95,1-23.61-1.2,0,0-.36-.11-.36-.11l-.18-.06s-.18,0-.06-.09h0Zm-.18-.24c.24-.05.23,0,.31-.01.1,0,.46.03.57.03,3.65.18,7.58.18,11.21-.03,3.89-.26,7.9-.69,11.69-1.44.86-.18,1.7.37,1.88,1.23.49,6.14,1.18,12.26-.31,18.34-1.16,2.98-3.71,5.01-5.92,7.16-1.97,1.74-3.92,3.5-6.13,4.94-.39.22-.78.45-1.28.46-.57-.07-.89-.25-1.26-.41-2.36-1.25-4.49-2.83-6.54-4.54-2.32-2.06-4.7-4.49-5.53-7.6-.39-1.64-.49-3.16-.5-4.69C.01,10.6.58,6.32,1.6,2.14c.07-.18.09-.49.2-.65h0Z"/>
    <path class="cls-1" d="m7.03,22.45c1.64-6.45,11.85-6.45,13.48,0-3.76-3.8-9.73-3.81-13.48,0h0Z"/>
    <path class="cls-1" d="m12.12,8.28c.48,2.11-1.66,3.85-3.65,3.8-1.99.05-4.12-1.7-3.64-3.8,0-.09.09-.2.17-.1,1.53,2.52,5.42,2.51,6.94,0,.08-.1.17,0,.17.1h0Z"/>
    <path class="cls-1" d="m22.71,8.29c.48,2.1-1.66,3.85-3.64,3.8-1.98.05-4.11-1.7-3.64-3.8,0-.09.09-.2.17-.1,1.53,2.52,5.42,2.51,6.94,0,.08-.1.17,0,.17.1h0Z"/>
  </g>
</svg>